<?xml version="1.0" standalone="no"?>
<!DOCTYPE svg PUBLIC "-//W3C//DTD SVG 20010904//EN"
 "http://www.w3.org/TR/2001/REC-SVG-20010904/DTD/svg10.dtd">
<svg version="1.0" xmlns="http://www.w3.org/2000/svg"
 width="635.000000pt" height="393.000000pt" viewBox="0 0 635.000000 393.000000"
 preserveAspectRatio="xMidYMid meet">

<g transform="translate(0.000000,393.000000) scale(0.100000,-0.100000)"
fill="#000000" stroke="none">
<path d="M879 3197 c-31 -24 -48 -64 -58 -142 -14 -99 -30 -158 -45 -167 -6
-4 -40 -8 -76 -8 -128 0 -230 -78 -230 -176 0 -54 118 -86 160 -44 36 36 51
26 49 -31 -2 -45 1 -54 22 -70 42 -33 49 -40 49 -49 0 -5 -22 -37 -50 -72 -43
-54 -123 -166 -248 -346 -40 -58 -39 -86 3 -90 68 -7 185 116 337 353 70 110
71 110 134 40 29 -33 54 -63 54 -66 0 -4 -16 -29 -35 -55 -19 -27 -84 -121
-144 -209 -60 -88 -121 -173 -136 -189 -33 -38 -40 -67 -26 -107 19 -54 7 -59
-150 -59 -78 0 -140 4 -144 10 -3 5 1 35 10 67 29 101 29 100 6 113 -19 9 -26
6 -56 -27 -20 -21 -45 -58 -55 -82 -13 -28 -56 -78 -121 -140 l-101 -96 -5
-65 c-3 -50 0 -73 14 -100 28 -55 58 -52 156 13 133 89 177 102 342 102 107 0
165 -6 245 -23 58 -12 130 -27 160 -33 88 -16 209 -68 290 -122 110 -74 180
-127 180 -135 0 -11 148 -122 178 -133 14 -5 33 -7 41 -4 9 4 55 10 103 15 75
7 99 15 180 56 78 40 108 62 185 142 67 68 96 105 103 133 6 21 15 41 20 44 6
3 10 11 10 16 0 7 -25 8 -70 3 -38 -3 -70 -3 -70 1 0 4 33 40 73 79 99 98 142
182 142 280 0 64 2 71 20 71 11 0 24 -10 31 -22 6 -13 19 -32 29 -43 12 -13
20 -44 24 -91 8 -86 28 -110 70 -83 24 16 26 16 48 -10 13 -15 23 -38 23 -51
0 -20 -10 -27 -82 -51 -92 -30 -164 -68 -177 -93 -5 -9 -10 -30 -12 -46 -5
-62 1 -85 25 -100 23 -15 27 -15 73 9 36 20 63 26 107 26 39 0 65 5 76 15 10
9 41 18 71 21 30 4 70 16 89 27 29 16 61 22 175 27 77 4 147 10 155 13 8 3 27
8 42 11 18 4 37 21 53 47 23 35 30 40 58 37 35 -3 34 -1 21 -90 -5 -39 -4 -48
8 -48 26 0 100 90 167 202 79 131 132 203 151 203 15 0 40 -70 93 -260 41
-144 117 -341 149 -386 29 -40 31 -41 76 -36 29 3 60 0 79 -8 31 -13 34 -12
90 33 81 66 159 149 185 199 13 24 25 43 28 43 3 0 11 -19 17 -43 7 -24 29
-63 51 -87 33 -37 43 -43 75 -42 50 2 89 24 126 70 64 81 190 111 475 114 364
4 540 -41 769 -195 89 -60 104 -67 149 -67 69 0 159 52 273 158 98 90 145 162
145 219 l0 36 -47 -6 c-52 -6 -317 24 -417 48 -34 7 -119 32 -191 53 -71 22
-150 43 -175 47 -100 15 -119 24 -140 65 -11 22 -34 50 -50 62 -56 41 -63 62
-61 174 1 56 5 113 9 128 l7 27 202 2 c238 2 224 -5 272 130 29 82 30 90 16
122 -16 40 -2 39 -266 35 -105 -1 -159 2 -163 9 -4 6 20 66 53 134 34 67 61
132 61 144 0 27 18 30 180 36 63 3 123 8 132 12 9 3 27 30 41 59 14 28 32 58
41 65 35 29 1 82 -65 101 -93 27 -984 54 -1116 34 -49 -7 -97 -36 -127 -77
-17 -23 -21 -43 -21 -100 l0 -71 -85 -34 c-73 -30 -96 -35 -166 -34 -73 0 -92
4 -177 41 -111 47 -153 48 -227 8 -25 -13 -72 -30 -105 -37 -33 -7 -73 -16
-89 -21 -16 -5 -48 -9 -72 -9 -35 0 -47 -5 -67 -30 -22 -26 -28 -28 -40 -16
-8 8 -17 46 -21 88 -3 40 -13 95 -21 122 -8 27 -15 72 -15 100 0 110 -42 180
-103 174 -30 -3 -33 -7 -41 -51 -8 -39 -4 -73 22 -195 18 -81 32 -167 32 -191
l0 -44 -49 46 c-58 54 -87 64 -150 50 -52 -12 -250 -1 -293 15 -40 16 -41 27
-5 65 26 28 43 37 82 42 28 3 63 11 79 16 16 5 45 9 65 9 37 0 114 30 125 49
11 17 -23 59 -57 70 -46 15 -303 43 -438 48 -148 6 -239 -7 -285 -42 -37 -28
-53 -69 -37 -94 16 -26 147 -52 242 -49 l84 3 8 -27 c4 -15 5 -36 2 -46 -9
-34 -133 -66 -247 -64 -131 3 -145 -19 -106 -160 26 -94 25 -118 -5 -183 -34
-70 -47 -81 -77 -61 -46 30 -396 30 -547 0 -26 -5 -36 -3 -43 11 -9 15 -12 15
-35 -7 l-25 -23 304 -5 303 -5 -1 -22 c-1 -22 4 -23 62 -23 l62 0 13 38 c15
48 71 145 117 202 45 56 223 240 233 240 4 0 44 -30 89 -66 l81 -66 52 39 c79
60 75 59 116 19 l37 -36 34 35 c19 19 40 35 47 35 17 0 243 -200 243 -215 0
-6 -38 -49 -85 -95 l-86 -85 127 -5 c97 -4 128 -8 132 -19 3 -10 0 -12 -12 -8
-10 4 -79 7 -154 7 l-137 0 103 103 102 103 -116 103 -116 103 -42 -41 -42
-41 -34 35 c-19 19 -38 35 -43 35 -5 0 -35 -21 -68 -46 -54 -41 -62 -44 -77
-32 -9 8 -44 38 -78 66 -33 29 -65 52 -70 52 -16 0 -186 -178 -239 -250 -47
-64 -115 -192 -115 -217 0 -10 -24 -13 -90 -13 -82 0 -107 8 -80 25 33 20 -16
25 -296 27 l-305 3 78 92 c92 109 149 155 228 186 l59 23 0 52 1 52 -250 0
-250 0 -32 -51 c-33 -51 -40 -70 -25 -68 48 8 95 -17 107 -58 4 -16 -8 -38
-52 -92 -32 -38 -62 -70 -68 -70 -11 0 -89 106 -107 145 -16 34 4 73 41 80
l29 6 -24 35 c-13 19 -26 43 -29 54 -6 18 -19 19 -281 19 l-274 0 0 -54 0 -54
44 -11 c88 -22 201 -127 349 -325 l67 -89 0 -195 c0 -194 0 -195 -26 -229 -31
-41 -111 -88 -176 -103 -36 -9 -48 -17 -48 -31 0 -18 14 -19 401 -19 261 0
407 4 420 11 16 8 27 4 61 -25 23 -20 67 -45 97 -57 55 -20 57 -20 90 -2 55
29 145 117 174 171 38 69 52 145 38 193 -7 22 -15 39 -19 39 -4 0 -29 -14 -57
-30 -72 -43 -75 -41 -75 40 l0 70 135 0 135 0 27 -42 c14 -24 72 -104 128
-178 56 -74 123 -168 150 -207 l48 -73 36 29 c20 16 54 48 76 70 21 23 43 41
48 41 4 0 25 -11 45 -25 36 -24 41 -25 224 -25 l188 0 0 200 0 200 78 1 c42 0
102 1 132 2 46 0 55 -2 52 -16 -8 -48 78 -154 235 -289 46 -40 97 -94 112
-120 l27 -46 84 79 c47 43 88 78 93 79 13 0 7 -25 -13 -50 -11 -14 -20 -28
-20 -32 0 -5 111 -8 247 -8 l247 0 43 -42 43 -42 35 18 c19 10 68 50 108 87
l75 69 61 -74 c33 -41 61 -79 61 -85 0 -19 12 -12 69 37 74 64 177 139 201
147 11 4 20 9 20 13 0 4 -43 41 -96 82 l-95 75 5 65 c7 81 42 222 68 275 11
22 36 61 54 88 36 50 35 55 -6 32 -14 -8 -30 -14 -36 -15 -27 0 58 209 141
351 19 33 35 61 35 63 0 2 -25 -3 -56 -10 -160 -37 -401 -37 -556 0 -32 7 -58
12 -58 11 0 -2 29 -58 64 -126 83 -161 124 -289 143 -452 8 -71 13 -130 11
-133 -2 -2 -30 -15 -62 -29 l-57 -25 3 155 3 155 -35 -6 c-88 -14 -136 -26
-177 -44 l-43 -19 0 259 0 260 -62 -35 c-155 -85 -317 -86 -484 -3 l-61 30
-44 -25 c-71 -41 -184 -70 -275 -71 l-81 -1 23 -35 c42 -64 54 -115 54 -236
l0 -114 -97 0 c-93 0 -96 1 -80 18 11 10 20 13 25 7 4 -5 34 -10 67 -10 l60 0
3 114 c3 120 -6 163 -49 222 -31 44 -25 49 56 49 101 0 166 15 262 61 l81 39
44 -25 c170 -95 382 -89 528 15 17 12 34 18 40 15 6 -4 10 -99 10 -257 0 -234
1 -250 18 -243 37 16 169 45 205 45 36 0 52 -20 27 -35 -14 -8 -13 -255 0
-255 6 0 26 7 45 14 31 14 35 19 35 54 0 73 -21 207 -47 292 -24 82 -93 235
-149 332 -15 27 -25 51 -21 54 3 4 46 -2 94 -12 123 -26 393 -26 516 0 48 10
91 15 95 12 3 -4 0 -17 -8 -29 -74 -116 -153 -281 -167 -349 l-6 -33 26 18
c61 40 62 12 2 -77 -50 -75 -79 -158 -100 -290 -11 -69 -12 -93 -3 -104 7 -7
52 -45 100 -84 48 -39 88 -74 88 -77 0 -4 -33 -28 -72 -54 -40 -25 -107 -76
-148 -112 -41 -36 -79 -65 -83 -65 -4 0 -11 8 -14 18 -8 20 -101 135 -114 140
-5 2 -36 -21 -70 -52 -33 -30 -80 -67 -105 -82 l-45 -27 -43 42 -42 41 -249 0
c-206 0 -251 3 -265 15 -15 13 -22 10 -73 -36 l-56 -50 -25 50 c-14 27 -35 56
-47 65 -12 8 -73 63 -136 121 -109 102 -173 186 -173 228 0 15 -12 17 -120 17
l-120 0 -2 -202 -3 -203 -185 -3 -185 -2 -45 28 -45 29 -74 -69 c-40 -37 -79
-68 -86 -68 -6 0 -34 33 -60 72 -27 40 -94 134 -150 208 -56 74 -114 154 -130
178 l-28 42 -123 0 -124 0 0 -55 c0 -30 4 -55 10 -55 5 0 32 14 61 31 48 28
53 29 68 14 28 -28 21 -148 -12 -220 -45 -97 -176 -215 -239 -215 -30 0 -115
40 -154 73 -27 23 -34 25 -75 16 -24 -5 -213 -8 -424 -7 l-380 3 -3 32 c-3 30
-1 33 40 43 74 19 122 44 166 87 l42 42 0 188 0 188 -81 109 c-140 188 -251
286 -344 306 -30 6 -30 7 -33 78 l-3 72 285 0 284 0 11 -33 c7 -19 22 -48 35
-66 l24 -32 41 66 42 65 257 -2 257 -3 0 -69 0 -69 -47 -12 c-39 -10 -128 -57
-128 -68 0 -2 26 2 59 8 144 30 171 53 171 146 0 47 -5 63 -24 86 l-24 28
-119 -3 c-65 -1 -190 -3 -278 -5 -121 -1 -165 -6 -182 -17 -20 -13 -26 -13
-52 3 -16 9 -46 17 -68 17 -21 0 -55 3 -75 6 -31 5 -38 11 -38 29 0 12 -6 27
-12 33 -7 5 -76 17 -152 26 -77 9 -144 20 -150 26 -14 14 68 97 111 111 42 14
83 63 83 99 0 45 -67 110 -111 110 -19 0 -41 -6 -50 -13z m3768 -461 c-8 -20
23 -105 56 -155 31 -47 32 -51 11 -51 -12 0 -14 -7 -9 -32 15 -68 23 -80 45
-68 17 9 20 8 20 -9 0 -15 -13 -23 -56 -36 -31 -9 -61 -14 -67 -12 -15 5 -18
377 -4 377 5 0 7 -6 4 -14z m-656 -96 c37 -37 113 -60 195 -60 35 0 66 -5 70
-11 3 -6 -3 -24 -15 -40 -19 -25 -21 -41 -21 -158 0 -130 0 -130 30 -164 30
-35 30 -47 -2 -47 -16 0 -18 -9 -18 -68 0 -37 5 -73 11 -79 20 -20 -24 -74
-163 -207 l-131 -125 -121 126 c-144 149 -164 177 -148 204 7 10 12 48 12 84
0 58 -2 65 -19 65 -33 0 -34 19 -2 56 31 35 31 35 31 156 0 105 -3 125 -21
154 -26 43 -19 54 35 54 58 0 132 23 186 59 25 16 49 30 53 30 5 1 22 -12 38
-29z m-1191 -35 c38 -30 72 -55 76 -55 4 0 26 18 50 40 24 22 49 40 55 40 16
0 79 -48 79 -60 0 -5 -18 -19 -41 -30 -48 -25 -69 -67 -69 -140 0 -35 -4 -52
-14 -56 -9 -4 -53 28 -113 80 -112 98 -102 100 -159 -19 -78 -163 -63 -322 47
-481 l32 -47 18 24 c16 22 59 137 59 159 0 18 -17 11 -60 -25 -53 -44 -64 -44
-57 -1 8 49 51 112 97 142 62 41 209 70 225 44 3 -6 -3 -22 -14 -36 -20 -25
-21 -39 -21 -265 0 -258 0 -259 -51 -221 -13 10 -41 29 -61 41 l-38 23 -42
-37 c-67 -57 -83 -56 -135 1 -76 86 -165 208 -185 253 -17 39 -25 69 -43 154
-3 15 -12 27 -20 27 -25 0 -26 18 0 48 14 16 25 37 25 46 0 23 80 174 126 236
47 63 146 170 157 170 5 0 39 -25 77 -55z m2430 45 c12 -8 11 -14 -6 -47 -52
-95 -101 -277 -90 -330 4 -16 -4 -69 -19 -127 -14 -54 -25 -115 -25 -135 0
-20 -4 -41 -8 -47 -11 -17 -51 -36 -62 -29 -6 3 -10 40 -10 81 0 70 -1 75 -19
69 -18 -5 -20 2 -26 82 -3 48 -13 124 -21 168 -17 87 -70 263 -86 282 -6 7 -8
20 -4 28 4 13 34 15 183 15 98 0 185 -4 193 -10z m-3980 -20 c0 -13 -10 -24
-25 -30 -42 -16 -31 -48 60 -175 47 -66 89 -123 94 -128 10 -10 98 96 155 186
43 68 47 104 11 112 -14 3 -37 7 -51 10 -17 4 -24 11 -22 23 3 15 24 17 216
20 208 2 212 2 212 -18 0 -11 -6 -22 -12 -24 -84 -24 -108 -36 -159 -84 -60
-55 -203 -223 -252 -295 l-27 -41 2 -225 3 -225 33 -10 c25 -7 32 -14 30 -30
-3 -20 -8 -21 -163 -21 -143 0 -160 2 -163 17 -2 12 9 23 35 35 l38 18 3 224
2 225 -42 60 c-177 258 -263 346 -334 346 -35 0 -49 12 -40 35 4 12 39 15 201
15 189 0 195 -1 195 -20z m3230 -260 c0 -137 1 -250 3 -250 2 0 54 23 116 50
62 28 116 50 120 50 3 0 6 -78 7 -173 1 -237 9 -260 69 -197 28 29 28 30 7 30
-39 0 -23 27 28 49 62 27 140 39 140 22 0 -26 -123 -190 -198 -264 l-79 -79
-36 44 c-20 24 -50 73 -66 108 -28 58 -31 75 -31 158 0 50 -2 92 -5 92 -3 0
-24 -9 -47 -21 l-41 -21 5 -133 c3 -73 1 -140 -4 -149 -7 -13 -27 -16 -113
-16 -66 0 -106 4 -111 11 -4 6 7 25 25 41 l31 29 0 337 c-1 273 -3 342 -15
362 -23 40 -18 55 28 80 23 13 64 38 92 57 27 18 55 33 62 33 10 0 13 -55 13
-250z m-1231 183 c34 -31 61 -62 61 -68 0 -6 -29 -40 -65 -75 l-65 -65 -67 67
-66 66 58 66 c31 36 63 66 71 66 7 0 40 -26 73 -57z m-154 -190 l68 -73 -76 0
-77 0 0 68 c0 38 3 72 7 75 3 4 7 6 8 5 0 -2 32 -36 70 -75z m-262 -17 c76
-58 91 -76 62 -76 -32 0 -123 -42 -174 -81 l-54 -41 6 80 c6 93 46 200 70 185
7 -4 48 -34 90 -67z m724 32 c-3 -7 -5 -2 -5 12 0 14 2 19 5 13 2 -7 2 -19 0
-25z m-1827 -322 c0 -107 4 -197 8 -200 5 -3 25 6 45 20 l37 25 0 174 0 175
120 0 c104 0 120 -2 120 -16 0 -11 -5 -14 -17 -10 -18 7 -83 -11 -83 -23 0
-12 39 -6 52 7 19 19 33 14 15 -6 -15 -16 -17 -46 -17 -218 1 -150 4 -203 14
-216 18 -24 22 -23 67 12 24 19 36 36 32 46 -3 9 6 19 31 29 44 19 46 19 46
-2 0 -38 -58 -128 -123 -189 -87 -82 -110 -84 -176 -16 -26 26 -54 58 -62 71
l-16 25 -29 -21 c-16 -11 -44 -28 -62 -37 -31 -16 -34 -16 -82 5 -28 12 -62
35 -75 51 -25 29 -25 31 -25 235 0 172 -3 209 -15 224 -14 15 -14 18 0 33 13
12 37 16 106 16 l89 0 0 -194z m1580 181 c0 -8 -11 -24 -25 -37 l-25 -23 -2
-251 -3 -251 -99 -3 c-107 -3 -131 5 -103 36 15 16 17 47 17 247 0 203 -2 231
-17 248 -17 18 -17 19 2 33 26 20 255 20 255 1z m-2199 -74 c42 -95 34 -330
-11 -378 -41 -44 -116 -68 -223 -73 -54 -2 -103 0 -108 5 -6 6 11 35 44 76 49
61 83 116 216 345 23 39 46 72 52 72 5 0 19 -21 30 -47z m1244 6 c4 -6 -2 -20
-13 -32 -11 -12 -22 -31 -24 -42 -3 -18 -12 -20 -122 -23 -73 -2 -123 1 -130
8 -7 7 4 24 34 55 l44 45 102 0 c63 0 105 -4 109 -11z m1255 -2 c0 -8 -9 -22
-20 -32 -11 -10 -20 -29 -20 -42 0 -23 0 -23 -134 -23 -87 0 -137 4 -142 11
-3 6 13 31 37 55 l43 44 118 0 c92 0 118 -3 118 -13z m-115 -247 c14 -23 -73
-138 -95 -125 -4 2 -8 29 -9 59 -1 43 2 57 16 65 23 14 80 14 88 1z m1640
-106 l60 -54 -70 -65 c-38 -35 -75 -65 -81 -65 -19 0 -123 125 -115 138 10 17
124 101 136 101 6 0 37 -24 70 -55z m-868 -284 c17 0 20 -4 16 -22 -8 -33 -32
-48 -72 -47 -42 1 -130 30 -133 44 -3 11 117 35 147 29 11 -2 30 -4 42 -4z
m-2462 -29 c20 -10 31 -22 26 -26 -6 -3 -15 -4 -19 -1 -4 2 -46 9 -92 15 -132
17 -150 21 -150 33 0 19 192 2 235 -21z"/>
<path d="M3920 2585 c-7 -8 -28 -17 -49 -20 -20 -4 -49 -12 -65 -18 -26 -9
-27 -12 -10 -18 33 -13 109 -10 131 6 19 13 24 13 50 0 15 -8 50 -15 76 -15
44 0 47 -1 37 -19 -5 -11 -10 -80 -10 -153 l0 -134 31 -32 c31 -31 33 -32 51
-15 21 19 27 20 37 6 3 -5 20 -6 36 -3 l30 7 -28 11 c-16 7 -37 12 -47 12 -36
0 -50 49 -50 172 0 62 4 119 9 127 6 9 18 12 37 7 25 -7 26 -6 13 10 -12 16
-12 17 2 12 9 -4 22 -1 28 5 23 23 9 27 -30 7 -36 -19 -43 -20 -62 -7 -12 8
-44 17 -72 21 -27 4 -64 16 -81 27 -38 23 -48 24 -64 4z"/>
<path d="M3690 2533 c20 -25 21 -38 19 -169 -1 -78 2 -147 6 -155 6 -11 5 -11
-5 -2 -9 8 -17 6 -31 -8 -24 -24 -24 -31 -1 -27 15 3 18 -8 22 -82 3 -47 1
-88 -3 -91 -16 -12 18 -56 134 -177 l116 -119 39 34 c111 98 215 207 210 220
-3 8 -2 11 4 8 5 -3 14 3 19 13 9 17 7 19 -27 18 l-37 -1 -3 66 c-3 60 -5 66
-32 83 -17 9 -33 15 -38 13 -4 -3 -5 -69 -2 -147 4 -104 2 -144 -7 -152 -7 -5
-16 -7 -21 -4 -6 3 -9 -2 -8 -12 0 -10 -6 -16 -16 -16 -10 1 -15 -2 -12 -7 5
-9 -44 -58 -60 -59 -4 0 -39 27 -76 60 -87 77 -112 130 -110 238 1 42 -3 92
-9 111 -13 43 -7 53 26 40 18 -6 30 -6 39 2 20 17 17 23 -16 36 l-30 11 -1
104 c-1 132 -6 148 -54 175 -53 30 -61 29 -35 -4z"/>
<path d="M3930 2520 c-8 -5 -33 -10 -54 -10 -31 0 -37 -3 -28 -12 19 -19 16
-257 -3 -285 -13 -19 -13 -22 0 -27 12 -4 15 -30 15 -137 l0 -131 46 -54 c26
-30 52 -54 58 -54 7 0 31 19 53 43 l42 42 5 140 c5 169 5 141 0 308 -4 93 -1
143 6 152 9 10 0 14 -42 17 -29 2 -60 7 -68 11 -8 4 -22 2 -30 -3z m70 -332
c0 -230 -2 -264 -17 -280 -16 -18 -17 -18 -40 4 -23 21 -23 22 -23 280 l0 258
40 0 40 0 0 -262z"/>
<path d="M3930 2186 c0 -203 2 -246 15 -256 8 -7 22 -10 30 -6 13 5 15 41 15
256 l0 250 -30 0 -30 0 0 -244z"/>
<path d="M2686 2605 c-11 -8 -16 -18 -12 -22 4 -4 11 -1 15 6 6 9 11 10 15 2
11 -18 -4 -33 -27 -27 -12 3 -29 -2 -39 -11 -17 -15 -17 -17 0 -29 9 -7 14
-16 9 -20 -4 -4 -13 -2 -19 4 -9 9 -17 7 -35 -10 -28 -26 -29 -36 -5 -54 9 -7
12 -14 5 -14 -6 0 -15 5 -18 10 -3 6 -10 10 -14 10 -12 0 -91 -145 -107 -196
-8 -26 -22 -56 -32 -67 -16 -18 -16 -19 2 -16 17 4 21 -6 31 -67 17 -97 68
-190 172 -313 47 -56 87 -101 90 -101 12 0 52 26 86 57 l37 33 67 -45 c37 -24
69 -43 70 -41 4 4 -8 26 -68 133 l-30 52 18 117 c17 114 17 117 -2 130 -20 15
-85 16 -85 2 0 -5 -10 -6 -22 -3 -18 4 -28 -2 -45 -29 -12 -19 -25 -47 -29
-63 l-7 -28 29 26 c36 32 76 59 88 59 17 0 -2 -89 -33 -156 l-32 -68 23 -18
23 -18 -28 -25 c-15 -14 -33 -25 -38 -25 -25 0 -138 152 -175 237 -32 71 -45
180 -31 251 l10 54 36 -6 36 -5 -32 11 c-18 6 -33 15 -33 19 0 4 14 3 31 -3
16 -6 32 -8 36 -5 9 10 -8 27 -28 27 -10 0 -19 5 -19 11 0 10 5 9 46 -8 6 -2
14 6 17 19 9 32 76 138 89 138 6 0 55 -38 109 -86 55 -47 99 -81 99 -76 0 5
-7 23 -15 38 -13 26 -13 29 3 36 14 5 13 7 -5 7 -13 1 -23 7 -23 14 0 6 -12
20 -28 29 -61 38 -147 111 -144 124 4 18 -8 17 -32 -1z"/>
<path d="M2933 2568 c4 -12 2 -15 -9 -11 -7 3 -14 0 -14 -6 0 -6 5 -11 10 -11
6 0 10 -4 10 -9 0 -5 -10 -7 -22 -4 -23 5 -23 5 -3 -10 11 -8 24 -13 29 -10 5
4 6 1 2 -5 -14 -23 12 -12 27 11 9 13 29 30 46 37 17 7 28 16 25 21 -7 13 -61
11 -69 -1 -5 -8 -12 -7 -23 2 -13 11 -15 10 -9 -4z"/>
<path d="M2900 2482 c0 -4 10 -9 22 -9 18 -2 20 0 8 7 -18 12 -30 13 -30 2z"/>
<path d="M2578 2273 c7 -3 16 -2 19 1 4 3 -2 6 -13 5 -11 0 -14 -3 -6 -6z"/>
<path d="M2548 2253 c6 -2 18 -2 25 0 6 3 1 5 -13 5 -14 0 -19 -2 -12 -5z"/>
<path d="M2973 2190 c-40 -24 -41 -29 -8 -22 14 2 30 13 36 23 12 23 11 23
-28 -1z"/>
<path d="M4902 2545 c40 -117 67 -243 75 -352 5 -72 9 -91 18 -83 17 14 25
-17 25 -97 0 -64 7 -74 39 -54 10 6 10 10 1 16 -9 6 -9 10 1 16 10 6 11 9 2 9
-20 0 -14 80 6 80 13 0 14 2 2 9 -23 15 -23 44 0 38 24 -6 25 11 2 20 -25 9
-31 20 -25 49 3 17 11 24 28 24 13 0 24 -5 24 -11 0 -5 5 -7 10 -4 6 4 7 11 4
17 -4 6 0 15 7 20 10 7 8 8 -6 2 -11 -4 -31 -7 -45 -8 l-25 -1 -1 120 c-1 66
3 125 8 131 9 12 -19 35 -133 112 l-46 31 29 -84z"/>
<path d="M5184 2596 c5 -14 3 -17 -10 -12 -9 3 -32 -3 -51 -15 l-36 -22 38
-19 c20 -11 38 -18 39 -16 25 44 36 82 25 92 -9 8 -10 7 -5 -8z m-19 -44 c-3
-3 -11 0 -18 7 -9 10 -8 11 6 5 10 -3 15 -9 12 -12z"/>
<path d="M5104 2501 c32 -14 36 -19 22 -24 -25 -10 -38 -9 -31 3 3 6 -3 10
-14 10 -33 0 -24 -16 17 -33 37 -15 59 -13 33 2 -9 6 -7 10 8 14 32 8 25 23
-18 35 -55 17 -63 13 -17 -7z"/>
<path d="M5090 2420 c14 -4 32 -8 40 -9 13 -1 13 0 0 9 -8 5 -26 9 -40 9 l-25
-1 25 -8z"/>
<path d="M5080 2190 c0 -6 -4 -8 -10 -5 -5 3 -10 1 -10 -4 0 -6 9 -11 20 -11
21 0 27 15 10 25 -5 3 -10 1 -10 -5z"/>
<path d="M862 2624 c4 -3 21 -8 40 -11 83 -12 121 -50 296 -292 l82 -114 0
-244 0 -243 -26 -10 c-14 -6 -30 -8 -35 -4 -5 3 -9 0 -9 -5 0 -7 51 -11 153
-10 142 1 157 5 77 23 -14 3 -37 16 -52 29 l-28 24 0 211 c0 182 2 211 16 216
8 3 22 -1 30 -9 19 -19 20 -19 28 0 3 8 2 14 -2 14 -19 -3 -33 2 -28 10 3 5
14 7 24 5 12 -2 40 26 97 98 44 56 118 141 165 189 68 70 94 89 130 99 72 19
78 22 58 27 -10 3 -55 -5 -100 -17 -46 -12 -93 -24 -105 -27 -13 -3 -34 3 -52
16 -18 13 -51 24 -83 26 l-53 5 44 -15 c73 -24 77 -45 26 -130 -20 -32 -33
-65 -30 -73 3 -9 0 -12 -9 -9 -8 3 -23 -7 -35 -24 -19 -26 -20 -33 -9 -46 12
-15 11 -15 -12 -3 -24 13 -24 12 -10 -5 14 -17 13 -18 -2 -13 -21 9 -31 -2
-16 -19 15 -18 2 -29 -17 -13 -18 15 -20 -1 -3 -18 10 -10 7 -18 -14 -38 -14
-15 -30 -24 -36 -20 -12 7 -142 187 -199 276 -60 93 -63 96 -153 124 -72 23
-163 35 -148 20z"/>
<path d="M1171 2613 c-29 -15 -31 -18 -15 -24 25 -10 39 -11 30 -2 -4 4 8 15
26 25 44 23 7 24 -41 1z"/>
<path d="M4294 2468 c14 -19 16 -72 16 -378 0 -195 -4 -360 -8 -366 -4 -6 -16
-16 -27 -22 -16 -9 0 -11 80 -12 l99 0 -37 38 -37 38 0 115 c0 64 3 118 6 122
4 3 22 0 42 -9 33 -14 37 -13 87 15 l53 30 4 -107 c4 -118 27 -184 89 -264
l32 -40 69 69 c63 61 121 135 174 218 l19 30 -36 -28 c-25 -19 -45 -26 -65
-23 -16 2 -24 2 -19 -1 6 -2 16 -13 23 -24 11 -18 7 -25 -40 -70 -89 -85 -117
-88 -152 -17 -23 47 -26 63 -26 164 0 62 -3 119 -6 128 -7 18 -64 22 -94 6
-15 -8 -22 -5 -34 12 -9 12 -16 18 -16 12 0 -5 5 -15 11 -21 17 -17 3 -31 -41
-38 -50 -9 -72 7 -70 49 1 17 2 108 1 203 l-1 172 -37 10 c-21 6 -46 11 -56
11 -17 0 -17 -2 -3 -22z"/>
<path d="M4425 2120 c11 -5 27 -9 35 -9 9 0 8 4 -5 9 -11 5 -27 9 -35 9 -9 0
-8 -4 5 -9z"/>
<path d="M3154 2571 c4 -5 2 -11 -3 -13 -5 -1 -3 -8 4 -15 10 -9 13 -6 13 13
0 13 -5 24 -10 24 -5 0 -7 -4 -4 -9z"/>
<path d="M3110 2531 c0 -5 10 -16 23 -25 22 -16 21 -16 -17 -14 -22 2 -41 -2
-43 -7 -2 -6 23 -36 54 -67 l58 -56 54 59 53 59 -54 0 c-47 0 -58 4 -83 30
-29 30 -45 38 -45 21z"/>
<path d="M3020 2360 l0 -50 51 0 52 0 -44 49 c-24 27 -47 49 -51 50 -5 1 -8
-21 -8 -49z"/>
<path d="M2716 2362 c-16 -37 -36 -127 -36 -164 0 -17 5 -16 46 13 25 17 71
41 101 54 l56 22 -59 47 c-89 71 -89 71 -108 28z"/>
<path d="M1828 2059 l-3 -174 29 -22 c35 -27 18 -31 -22 -6 l-27 17 18 -21
c18 -20 17 -21 -29 -52 -56 -37 -104 -41 -134 -11 -18 18 -20 33 -20 194 l0
174 -35 31 c-45 39 -73 43 -50 7 13 -20 16 -57 14 -225 -1 -184 0 -204 17
-223 22 -24 86 -58 109 -58 20 0 98 45 115 65 19 22 25 19 45 -24 20 -45 79
-106 113 -116 40 -12 141 80 192 176 30 57 30 57 6 46 -13 -6 -21 -17 -19 -25
3 -7 -19 -37 -49 -67 -64 -64 -107 -73 -147 -32 -36 39 -63 125 -51 167 12 41
13 270 2 285 -4 6 -22 23 -39 39 l-33 29 -2 -174z"/>
<path d="M3250 2219 c-38 -18 -42 -22 -26 -28 14 -5 28 0 48 17 43 38 40 40
-22 11z"/>
<path d="M3060 2221 c0 -5 5 -13 10 -16 15 -9 13 -488 -2 -503 -9 -9 10 -12
86 -12 l99 0 -46 41 -46 40 1 188 c0 112 -4 196 -10 207 -12 22 -92 70 -92 55z"/>
<path d="M2138 2154 c-4 -3 -4 -13 -1 -21 4 -10 2 -14 -7 -11 -14 4 -50 -20
-50 -34 0 -7 209 -8 223 0 5 2 0 10 -10 18 -15 11 -16 13 -2 14 9 0 24 9 34
20 21 23 11 25 -25 5 -35 -20 -136 -20 -148 0 -4 9 -11 13 -14 9z"/>
<path d="M3550 2144 c-29 -16 -156 -19 -165 -4 -3 6 -12 10 -18 10 -7 0 -6 -4
3 -10 17 -10 15 -13 -24 -25 -65 -22 -37 -31 89 -32 69 0 125 2 125 5 0 3 -8
11 -17 18 -17 13 -17 13 2 14 11 0 26 9 33 20 14 23 7 24 -28 4z"/>
<path d="M4940 1762 c0 -4 24 -33 53 -65 l52 -57 65 59 65 60 -95 1 c-52 1
-105 3 -117 6 -13 2 -23 1 -23 -4z"/>
<path d="M1437 3128 c-21 -24 -56 -67 -76 -97 -22 -34 -53 -65 -81 -81 -80
-47 -62 -101 40 -115 25 -4 108 -10 185 -14 77 -5 175 -16 218 -26 76 -18 78
-18 105 2 28 20 56 68 67 116 6 24 3 29 -27 41 -18 8 -81 20 -138 26 -183 20
-172 17 -165 50 10 47 -38 140 -73 140 -8 0 -33 -19 -55 -42z"/>
<path d="M3778 3016 l-108 -9 0 -39 c0 -60 45 -138 80 -138 9 0 37 13 62 29
42 27 47 34 54 78 3 26 11 56 16 66 5 10 8 19 6 20 -2 1 -51 -2 -110 -7z"/>
<path d="M150 2941 c-41 -8 -87 -36 -100 -62 -15 -27 -12 -85 5 -99 11 -9 33
-11 76 -6 74 9 94 17 187 79 58 39 73 53 70 70 -3 21 -9 22 -103 24 -55 0
-116 -2 -135 -6z"/>
<path d="M330 2596 c-59 -17 -230 -109 -259 -140 -13 -14 -24 -38 -24 -58 l-2
-33 57 1 c64 1 192 55 241 102 27 26 47 76 47 120 0 25 1 25 -60 8z"/>
<path d="M1335 2582 c-59 -12 -58 -46 2 -130 l47 -65 53 59 c60 66 66 101 23
120 -29 14 -97 22 -125 16z"/>
<path d="M294 2226 c-52 -24 -94 -55 -153 -113 -78 -75 -82 -81 -79 -118 4
-55 26 -65 84 -37 58 29 210 155 235 196 22 35 25 76 7 94 -16 16 -12 16 -94
-22z"/>
</g>
</svg>
